<svg id="Group_50104" data-name="Group 50104" xmlns="http://www.w3.org/2000/svg" xmlns:xlink="http://www.w3.org/1999/xlink" width="92.019" height="66.785" viewBox="0 0 92.019 66.785">
  <defs>
    <clipPath id="clip-path">
      <rect id="Rectangle_14105" data-name="Rectangle 14105" width="92.019" height="66.785" fill="#ee6b5b"/>
    </clipPath>
  </defs>
  <g id="Group_50103" data-name="Group 50103" transform="translate(0 0)" clip-path="url(#clip-path)">
    <path id="Path_74287" data-name="Path 74287" d="M113.423,33.273c6.77-.888,12.053.44,16.4,4.708a16.963,16.963,0,0,1-6.88,28.164C110.476,70.021,94.4,63.335,94.04,45.133c-.221-11.147,3.831-20.155,12.315-27.43C114.539,10.684,123.72,5.427,133.629.881l3.337,6.587c-9.757,6.705-20.812,12.052-23.543,25.805" transform="translate(-44.947 -0.421)" fill="#ee6b5b"/>
    <path id="Path_74288" data-name="Path 74288" d="M19.495,32.823c5.362-.637,9.857-.134,13.833,2.659,5.779,4.06,8.637,9.595,7.372,16.6C39.427,59.139,35.218,64.17,28.146,65.94,12.644,69.818-1.708,59.529.166,40.177c1.308-13.5,9.522-21.795,19.794-28.7C26.132,7.323,32.789,3.893,39.466,0c1.335,2.671,2.442,4.885,3.526,7.054-9.691,6.784-20.846,11.951-23.5,25.769" transform="translate(0 0)" fill="#ee6b5b"/>
  </g>
</svg>
